<svg 
 xmlns="http://www.w3.org/2000/svg"
 xmlns:xlink="http://www.w3.org/1999/xlink"
 width="89px" height="23px">
<path fill-rule="evenodd"  fill="rgb(255, 255, 255)"
 d="M79.269,22.239 C74.139,22.239 70.389,18.790 70.389,13.930 C70.389,9.70 74.139,5.620 79.269,5.620 C84.398,5.620 88.118,9.70 88.118,13.930 C88.118,18.790 84.398,22.239 79.269,22.239 ZM79.269,9.460 C76.929,9.460 75.129,11.140 75.129,13.930 C75.129,16.720 76.929,18.400 79.269,18.400 C81.608,18.400 83.378,16.720 83.378,13.930 C83.378,11.140 81.608,9.460 79.269,9.460 ZM59.259,4.780 C55.179,4.780 52.389,7.510 52.389,11.500 C52.389,15.430 55.179,18.220 59.199,18.220 C60.518,18.220 61.748,17.980 62.978,17.320 L62.978,11.170 L67.418,11.170 L67.418,19.690 C65.108,21.430 61.928,22.359 58.929,22.359 C52.329,22.359 47.469,17.830 47.469,11.500 C47.469,5.170 52.329,0.640 59.19,0.640 C62.708,0.640 65.768,1.900 67.808,4.270 L64.688,7.150 C63.158,5.530 61.388,4.780 59.259,4.780 ZM36.489,22.239 C31.359,22.239 27.609,18.790 27.609,13.930 C27.609,9.70 31.359,5.620 36.489,5.620 C41.618,5.620 45.338,9.70 45.338,13.930 C45.338,18.790 41.618,22.239 36.489,22.239 ZM36.489,9.460 C34.149,9.460 32.349,11.140 32.349,13.930 C32.349,16.720 34.149,18.400 36.489,18.400 C38.829,18.400 40.599,16.720 40.599,13.930 C40.599,11.140 38.829,9.460 36.489,9.460 ZM19.569,9.400 L13.389,19.780 L11.199,19.780 L5.49,9.670 L5.49,22.0 L0.489,22.0 L0.489,1.0 L4.509,1.0 L12.369,14.50 L20.109,1.0 L24.98,1.0 L24.158,22.0 L19.599,22.0 L19.569,9.400 Z"/>
</svg>